# xmcd CD database file
#
# Track frame offsets:
#	150
#	12464
#	64481
#	86811
#	108068
#	125732
#	160977
#	174571
#	189016
#	221235
#	251395
#	279182
#	302109
#
# Disc length: 4236 seconds
#
# Revision: 0
# Processed by: cddbd v1.5.1PL0 Copyright (c) Steve Scherf et al.
# Submitted via: CDex 1.51
#
DISCID=b4108a0d
DTITLE=Georg Graewe Trio - Impressions of Monk
DYEAR=1999
DGENRE=Jazz
TTITLE0=Brillant Corners
TTITLE1=I Mean You
TTITLE2=Crepuscule With Nellie
TTITLE3=Trinkle Tinkle
TTITLE4=Light Blue
TTITLE5=Off Minor
TTITLE6=Bye-Ya
TTITLE7=Introspection
TTITLE8=Coming On The Hudson
TTITLE9=Evidence
TTITLE10=Work
TTITLE11=Ugly Beauty
TTITLE12=Brilliant Corners
EXTD=YEAR: 1999
EXTT0=
EXTT1=
EXTT2=
EXTT3=
EXTT4=
EXTT5=
EXTT6=
EXTT7=
EXTT8=
EXTT9=
EXTT10=
EXTT11=
EXTT12=
PLAYORDER=
